<mxfile host="Electron" modified="2023-06-24T20:00:17.249Z" agent="Mozilla/5.0 (Windows NT 10.0; Win64; x64) AppleWebKit/537.36 (KHTML, like Gecko) draw.io/21.2.1 Chrome/112.0.5615.87 Electron/24.1.2 Safari/537.36" etag="COOOF09Yxv7BvtSgEBYT" version="21.2.1" type="device">
  <diagram name="Item-Diagram" id="Wj5W2UmY8VLawFgqXQVO">
    <mxGraphModel dx="1221" dy="717" grid="1" gridSize="10" guides="1" tooltips="1" connect="1" arrows="1" fold="1" page="1" pageScale="1" pageWidth="1654" pageHeight="1169" background="none" math="0" shadow="0">
      <root>
        <mxCell id="0" />
        <mxCell id="1" parent="0" />
        <mxCell id="ZzBOKmDnwNmZreqsW6G7-1" value="BaseItem : abstract" style="swimlane;fontStyle=1;align=center;verticalAlign=top;childLayout=stackLayout;horizontal=1;startSize=26;horizontalStack=0;resizeParent=1;resizeParentMax=0;resizeLast=0;collapsible=1;marginBottom=0;whiteSpace=wrap;html=1;" parent="1" vertex="1">
          <mxGeometry x="380" y="40" width="160" height="242" as="geometry" />
        </mxCell>
        <mxCell id="ZzBOKmDnwNmZreqsW6G7-2" value="ID : int" style="text;strokeColor=none;fillColor=none;align=left;verticalAlign=top;spacingLeft=4;spacingRight=4;overflow=hidden;rotatable=0;points=[[0,0.5],[1,0.5]];portConstraint=eastwest;whiteSpace=wrap;html=1;" parent="ZzBOKmDnwNmZreqsW6G7-1" vertex="1">
          <mxGeometry y="26" width="160" height="26" as="geometry" />
        </mxCell>
        <mxCell id="ZzBOKmDnwNmZreqsW6G7-3" value="" style="line;strokeWidth=1;fillColor=none;align=left;verticalAlign=middle;spacingTop=-1;spacingLeft=3;spacingRight=3;rotatable=0;labelPosition=right;points=[];portConstraint=eastwest;strokeColor=inherit;" parent="ZzBOKmDnwNmZreqsW6G7-1" vertex="1">
          <mxGeometry y="52" width="160" height="8" as="geometry" />
        </mxCell>
        <mxCell id="ZzBOKmDnwNmZreqsW6G7-4" value="Level : int" style="text;strokeColor=none;fillColor=none;align=left;verticalAlign=top;spacingLeft=4;spacingRight=4;overflow=hidden;rotatable=0;points=[[0,0.5],[1,0.5]];portConstraint=eastwest;whiteSpace=wrap;html=1;" parent="ZzBOKmDnwNmZreqsW6G7-1" vertex="1">
          <mxGeometry y="60" width="160" height="26" as="geometry" />
        </mxCell>
        <mxCell id="ZzBOKmDnwNmZreqsW6G7-5" value="Rarity : string" style="text;strokeColor=none;fillColor=none;align=left;verticalAlign=top;spacingLeft=4;spacingRight=4;overflow=hidden;rotatable=0;points=[[0,0.5],[1,0.5]];portConstraint=eastwest;whiteSpace=wrap;html=1;" parent="ZzBOKmDnwNmZreqsW6G7-1" vertex="1">
          <mxGeometry y="86" width="160" height="26" as="geometry" />
        </mxCell>
        <mxCell id="ZzBOKmDnwNmZreqsW6G7-6" value="Name : string" style="text;strokeColor=none;fillColor=none;align=left;verticalAlign=top;spacingLeft=4;spacingRight=4;overflow=hidden;rotatable=0;points=[[0,0.5],[1,0.5]];portConstraint=eastwest;whiteSpace=wrap;html=1;" parent="ZzBOKmDnwNmZreqsW6G7-1" vertex="1">
          <mxGeometry y="112" width="160" height="26" as="geometry" />
        </mxCell>
        <mxCell id="ZzBOKmDnwNmZreqsW6G7-7" value="Description : string" style="text;strokeColor=none;fillColor=none;align=left;verticalAlign=top;spacingLeft=4;spacingRight=4;overflow=hidden;rotatable=0;points=[[0,0.5],[1,0.5]];portConstraint=eastwest;whiteSpace=wrap;html=1;" parent="ZzBOKmDnwNmZreqsW6G7-1" vertex="1">
          <mxGeometry y="138" width="160" height="26" as="geometry" />
        </mxCell>
        <mxCell id="ZzBOKmDnwNmZreqsW6G7-8" value="ItemImage : image" style="text;strokeColor=none;fillColor=none;align=left;verticalAlign=top;spacingLeft=4;spacingRight=4;overflow=hidden;rotatable=0;points=[[0,0.5],[1,0.5]];portConstraint=eastwest;whiteSpace=wrap;html=1;" parent="ZzBOKmDnwNmZreqsW6G7-1" vertex="1">
          <mxGeometry y="164" width="160" height="26" as="geometry" />
        </mxCell>
        <mxCell id="hEGUzDSN-SBdjR0W7Lih-2" value="Imagename : string" style="text;strokeColor=none;fillColor=none;align=left;verticalAlign=top;spacingLeft=4;spacingRight=4;overflow=hidden;rotatable=0;points=[[0,0.5],[1,0.5]];portConstraint=eastwest;whiteSpace=wrap;html=1;" vertex="1" parent="ZzBOKmDnwNmZreqsW6G7-1">
          <mxGeometry y="190" width="160" height="26" as="geometry" />
        </mxCell>
        <mxCell id="ZzBOKmDnwNmZreqsW6G7-9" value="Value : int" style="text;strokeColor=none;fillColor=none;align=left;verticalAlign=top;spacingLeft=4;spacingRight=4;overflow=hidden;rotatable=0;points=[[0,0.5],[1,0.5]];portConstraint=eastwest;whiteSpace=wrap;html=1;" parent="ZzBOKmDnwNmZreqsW6G7-1" vertex="1">
          <mxGeometry y="216" width="160" height="26" as="geometry" />
        </mxCell>
        <mxCell id="ZzBOKmDnwNmZreqsW6G7-13" value="&lt;b&gt;Stats&lt;/b&gt;" style="swimlane;fontStyle=0;childLayout=stackLayout;horizontal=1;startSize=26;fillColor=none;horizontalStack=0;resizeParent=1;resizeParentMax=0;resizeLast=0;collapsible=1;marginBottom=0;whiteSpace=wrap;html=1;" parent="1" vertex="1">
          <mxGeometry x="120" y="250" width="120" height="260" as="geometry" />
        </mxCell>
        <mxCell id="ZzBOKmDnwNmZreqsW6G7-14" value="HP : int" style="text;strokeColor=none;fillColor=none;align=left;verticalAlign=top;spacingLeft=4;spacingRight=4;overflow=hidden;rotatable=0;points=[[0,0.5],[1,0.5]];portConstraint=eastwest;whiteSpace=wrap;html=1;" parent="ZzBOKmDnwNmZreqsW6G7-13" vertex="1">
          <mxGeometry y="26" width="120" height="26" as="geometry" />
        </mxCell>
        <mxCell id="ZzBOKmDnwNmZreqsW6G7-15" value="DMG : int" style="text;strokeColor=none;fillColor=none;align=left;verticalAlign=top;spacingLeft=4;spacingRight=4;overflow=hidden;rotatable=0;points=[[0,0.5],[1,0.5]];portConstraint=eastwest;whiteSpace=wrap;html=1;" parent="ZzBOKmDnwNmZreqsW6G7-13" vertex="1">
          <mxGeometry y="52" width="120" height="26" as="geometry" />
        </mxCell>
        <mxCell id="ZzBOKmDnwNmZreqsW6G7-16" value="DEF : int" style="text;strokeColor=none;fillColor=none;align=left;verticalAlign=top;spacingLeft=4;spacingRight=4;overflow=hidden;rotatable=0;points=[[0,0.5],[1,0.5]];portConstraint=eastwest;whiteSpace=wrap;html=1;" parent="ZzBOKmDnwNmZreqsW6G7-13" vertex="1">
          <mxGeometry y="78" width="120" height="26" as="geometry" />
        </mxCell>
        <mxCell id="ZzBOKmDnwNmZreqsW6G7-17" value="SPD : int" style="text;strokeColor=none;fillColor=none;align=left;verticalAlign=top;spacingLeft=4;spacingRight=4;overflow=hidden;rotatable=0;points=[[0,0.5],[1,0.5]];portConstraint=eastwest;whiteSpace=wrap;html=1;" parent="ZzBOKmDnwNmZreqsW6G7-13" vertex="1">
          <mxGeometry y="104" width="120" height="26" as="geometry" />
        </mxCell>
        <mxCell id="ZzBOKmDnwNmZreqsW6G7-18" value="CRC : int" style="text;strokeColor=none;fillColor=none;align=left;verticalAlign=top;spacingLeft=4;spacingRight=4;overflow=hidden;rotatable=0;points=[[0,0.5],[1,0.5]];portConstraint=eastwest;whiteSpace=wrap;html=1;" parent="ZzBOKmDnwNmZreqsW6G7-13" vertex="1">
          <mxGeometry y="130" width="120" height="26" as="geometry" />
        </mxCell>
        <mxCell id="ZzBOKmDnwNmZreqsW6G7-19" value="CRD : int" style="text;strokeColor=none;fillColor=none;align=left;verticalAlign=top;spacingLeft=4;spacingRight=4;overflow=hidden;rotatable=0;points=[[0,0.5],[1,0.5]];portConstraint=eastwest;whiteSpace=wrap;html=1;" parent="ZzBOKmDnwNmZreqsW6G7-13" vertex="1">
          <mxGeometry y="156" width="120" height="26" as="geometry" />
        </mxCell>
        <mxCell id="ZzBOKmDnwNmZreqsW6G7-20" value="STA : int" style="text;strokeColor=none;fillColor=none;align=left;verticalAlign=top;spacingLeft=4;spacingRight=4;overflow=hidden;rotatable=0;points=[[0,0.5],[1,0.5]];portConstraint=eastwest;whiteSpace=wrap;html=1;" parent="ZzBOKmDnwNmZreqsW6G7-13" vertex="1">
          <mxGeometry y="182" width="120" height="26" as="geometry" />
        </mxCell>
        <mxCell id="ZzBOKmDnwNmZreqsW6G7-21" value="STR : int" style="text;strokeColor=none;fillColor=none;align=left;verticalAlign=top;spacingLeft=4;spacingRight=4;overflow=hidden;rotatable=0;points=[[0,0.5],[1,0.5]];portConstraint=eastwest;whiteSpace=wrap;html=1;" parent="ZzBOKmDnwNmZreqsW6G7-13" vertex="1">
          <mxGeometry y="208" width="120" height="26" as="geometry" />
        </mxCell>
        <mxCell id="ZzBOKmDnwNmZreqsW6G7-22" value="XP : int" style="text;strokeColor=none;fillColor=none;align=left;verticalAlign=top;spacingLeft=4;spacingRight=4;overflow=hidden;rotatable=0;points=[[0,0.5],[1,0.5]];portConstraint=eastwest;whiteSpace=wrap;html=1;" parent="ZzBOKmDnwNmZreqsW6G7-13" vertex="1">
          <mxGeometry y="234" width="120" height="26" as="geometry" />
        </mxCell>
        <mxCell id="ZzBOKmDnwNmZreqsW6G7-23" value="Weapon" style="swimlane;fontStyle=0;childLayout=stackLayout;horizontal=1;startSize=26;fillColor=none;horizontalStack=0;resizeParent=1;resizeParentMax=0;resizeLast=0;collapsible=1;marginBottom=0;whiteSpace=wrap;html=1;" parent="1" vertex="1">
          <mxGeometry x="380" y="460" width="160" height="104" as="geometry" />
        </mxCell>
        <mxCell id="ZzBOKmDnwNmZreqsW6G7-24" value="Stats : Stats" style="text;strokeColor=none;fillColor=none;align=left;verticalAlign=top;spacingLeft=4;spacingRight=4;overflow=hidden;rotatable=0;points=[[0,0.5],[1,0.5]];portConstraint=eastwest;whiteSpace=wrap;html=1;" parent="ZzBOKmDnwNmZreqsW6G7-23" vertex="1">
          <mxGeometry y="26" width="160" height="26" as="geometry" />
        </mxCell>
        <mxCell id="hEGUzDSN-SBdjR0W7Lih-1" value="Type : string" style="text;strokeColor=none;fillColor=none;align=left;verticalAlign=top;spacingLeft=4;spacingRight=4;overflow=hidden;rotatable=0;points=[[0,0.5],[1,0.5]];portConstraint=eastwest;whiteSpace=wrap;html=1;" vertex="1" parent="ZzBOKmDnwNmZreqsW6G7-23">
          <mxGeometry y="52" width="160" height="26" as="geometry" />
        </mxCell>
        <mxCell id="hEGUzDSN-SBdjR0W7Lih-3" value="Charm : Charm" style="text;strokeColor=none;fillColor=none;align=left;verticalAlign=top;spacingLeft=4;spacingRight=4;overflow=hidden;rotatable=0;points=[[0,0.5],[1,0.5]];portConstraint=eastwest;whiteSpace=wrap;html=1;" vertex="1" parent="ZzBOKmDnwNmZreqsW6G7-23">
          <mxGeometry y="78" width="160" height="26" as="geometry" />
        </mxCell>
        <mxCell id="ZzBOKmDnwNmZreqsW6G7-27" value="Armour" style="swimlane;fontStyle=0;childLayout=stackLayout;horizontal=1;startSize=26;fillColor=none;horizontalStack=0;resizeParent=1;resizeParentMax=0;resizeLast=0;collapsible=1;marginBottom=0;whiteSpace=wrap;html=1;" parent="1" vertex="1">
          <mxGeometry x="380" y="330" width="160" height="78" as="geometry" />
        </mxCell>
        <mxCell id="ZzBOKmDnwNmZreqsW6G7-28" value="Stats : Stats" style="text;strokeColor=none;fillColor=none;align=left;verticalAlign=top;spacingLeft=4;spacingRight=4;overflow=hidden;rotatable=0;points=[[0,0.5],[1,0.5]];portConstraint=eastwest;whiteSpace=wrap;html=1;" parent="ZzBOKmDnwNmZreqsW6G7-27" vertex="1">
          <mxGeometry y="26" width="160" height="26" as="geometry" />
        </mxCell>
        <mxCell id="hEGUzDSN-SBdjR0W7Lih-5" value="Charm : Charm" style="text;strokeColor=none;fillColor=none;align=left;verticalAlign=top;spacingLeft=4;spacingRight=4;overflow=hidden;rotatable=0;points=[[0,0.5],[1,0.5]];portConstraint=eastwest;whiteSpace=wrap;html=1;" vertex="1" parent="ZzBOKmDnwNmZreqsW6G7-27">
          <mxGeometry y="52" width="160" height="26" as="geometry" />
        </mxCell>
        <mxCell id="ZzBOKmDnwNmZreqsW6G7-29" value="Amulet" style="swimlane;fontStyle=0;childLayout=stackLayout;horizontal=1;startSize=26;fillColor=none;horizontalStack=0;resizeParent=1;resizeParentMax=0;resizeLast=0;collapsible=1;marginBottom=0;whiteSpace=wrap;html=1;" parent="1" vertex="1">
          <mxGeometry x="110" y="160" width="160" height="52" as="geometry" />
        </mxCell>
        <mxCell id="ZzBOKmDnwNmZreqsW6G7-30" value="Stats : Stats" style="text;strokeColor=none;fillColor=none;align=left;verticalAlign=top;spacingLeft=4;spacingRight=4;overflow=hidden;rotatable=0;points=[[0,0.5],[1,0.5]];portConstraint=eastwest;whiteSpace=wrap;html=1;" parent="ZzBOKmDnwNmZreqsW6G7-29" vertex="1">
          <mxGeometry y="26" width="160" height="26" as="geometry" />
        </mxCell>
        <mxCell id="ZzBOKmDnwNmZreqsW6G7-31" value="Collectable" style="swimlane;fontStyle=0;childLayout=stackLayout;horizontal=1;startSize=26;fillColor=none;horizontalStack=0;resizeParent=1;resizeParentMax=0;resizeLast=0;collapsible=1;marginBottom=0;whiteSpace=wrap;html=1;" parent="1" vertex="1">
          <mxGeometry x="110" y="70" width="140" height="52" as="geometry" />
        </mxCell>
        <mxCell id="ZzBOKmDnwNmZreqsW6G7-32" value="IsSellable : bool" style="text;strokeColor=none;fillColor=none;align=left;verticalAlign=top;spacingLeft=4;spacingRight=4;overflow=hidden;rotatable=0;points=[[0,0.5],[1,0.5]];portConstraint=eastwest;whiteSpace=wrap;html=1;" parent="ZzBOKmDnwNmZreqsW6G7-31" vertex="1">
          <mxGeometry y="26" width="140" height="26" as="geometry" />
        </mxCell>
        <mxCell id="ZzBOKmDnwNmZreqsW6G7-33" value="" style="endArrow=block;dashed=1;endFill=0;endSize=12;html=1;rounded=0;entryX=1.002;entryY=0.051;entryDx=0;entryDy=0;exitX=-0.006;exitY=-0.154;exitDx=0;exitDy=0;exitPerimeter=0;entryPerimeter=0;" parent="1" source="ZzBOKmDnwNmZreqsW6G7-4" target="ZzBOKmDnwNmZreqsW6G7-32" edge="1">
          <mxGeometry width="160" relative="1" as="geometry">
            <mxPoint x="560" y="440" as="sourcePoint" />
            <mxPoint x="720" y="440" as="targetPoint" />
          </mxGeometry>
        </mxCell>
        <mxCell id="ZzBOKmDnwNmZreqsW6G7-34" value="" style="endArrow=block;dashed=1;endFill=0;endSize=12;html=1;rounded=0;exitX=1.006;exitY=0;exitDx=0;exitDy=0;entryX=1.002;entryY=0.154;entryDx=0;entryDy=0;exitPerimeter=0;entryPerimeter=0;edgeStyle=orthogonalEdgeStyle;" parent="1" source="ZzBOKmDnwNmZreqsW6G7-9" target="ZzBOKmDnwNmZreqsW6G7-23" edge="1">
          <mxGeometry width="160" relative="1" as="geometry">
            <mxPoint x="570" y="290" as="sourcePoint" />
            <mxPoint x="730" y="290" as="targetPoint" />
            <Array as="points">
              <mxPoint x="600" y="256" />
              <mxPoint x="600" y="476" />
            </Array>
          </mxGeometry>
        </mxCell>
        <mxCell id="ZzBOKmDnwNmZreqsW6G7-35" value="" style="endArrow=block;dashed=1;endFill=0;endSize=12;html=1;rounded=0;exitX=0.498;exitY=1.077;exitDx=0;exitDy=0;entryX=0.5;entryY=0;entryDx=0;entryDy=0;exitPerimeter=0;" parent="1" source="ZzBOKmDnwNmZreqsW6G7-9" target="ZzBOKmDnwNmZreqsW6G7-27" edge="1">
          <mxGeometry width="160" relative="1" as="geometry">
            <mxPoint x="550" y="175" as="sourcePoint" />
            <mxPoint x="630" y="63" as="targetPoint" />
          </mxGeometry>
        </mxCell>
        <mxCell id="ZzBOKmDnwNmZreqsW6G7-36" value="" style="endArrow=block;dashed=1;endFill=0;endSize=12;html=1;rounded=0;exitX=-0.01;exitY=0.205;exitDx=0;exitDy=0;entryX=0.985;entryY=-0.128;entryDx=0;entryDy=0;exitPerimeter=0;entryPerimeter=0;" parent="1" source="ZzBOKmDnwNmZreqsW6G7-7" target="ZzBOKmDnwNmZreqsW6G7-30" edge="1">
          <mxGeometry width="160" relative="1" as="geometry">
            <mxPoint x="550" y="175" as="sourcePoint" />
            <mxPoint x="630" y="143" as="targetPoint" />
          </mxGeometry>
        </mxCell>
        <mxCell id="ZzBOKmDnwNmZreqsW6G7-37" value="Use" style="endArrow=open;endSize=12;dashed=1;html=1;rounded=0;exitX=-0.01;exitY=-0.026;exitDx=0;exitDy=0;entryX=0.975;entryY=-0.09;entryDx=0;entryDy=0;exitPerimeter=0;entryPerimeter=0;edgeStyle=orthogonalEdgeStyle;" parent="1" source="ZzBOKmDnwNmZreqsW6G7-24" target="ZzBOKmDnwNmZreqsW6G7-20" edge="1">
          <mxGeometry width="160" relative="1" as="geometry">
            <mxPoint x="810" y="10" as="sourcePoint" />
            <mxPoint x="970" y="10" as="targetPoint" />
            <Array as="points">
              <mxPoint x="310" y="485" />
              <mxPoint x="310" y="430" />
            </Array>
          </mxGeometry>
        </mxCell>
        <mxCell id="ZzBOKmDnwNmZreqsW6G7-38" value="Use" style="endArrow=open;endSize=12;dashed=1;html=1;rounded=0;entryX=1.014;entryY=0.076;entryDx=0;entryDy=0;exitX=0;exitY=0.25;exitDx=0;exitDy=0;entryPerimeter=0;edgeStyle=orthogonalEdgeStyle;" parent="1" source="ZzBOKmDnwNmZreqsW6G7-27" target="ZzBOKmDnwNmZreqsW6G7-13" edge="1">
          <mxGeometry width="160" relative="1" as="geometry">
            <mxPoint x="460" y="430" as="sourcePoint" />
            <mxPoint x="868" y="66" as="targetPoint" />
          </mxGeometry>
        </mxCell>
        <mxCell id="ZzBOKmDnwNmZreqsW6G7-39" value="Use" style="endArrow=open;endSize=12;dashed=1;html=1;rounded=0;exitX=-0.006;exitY=-0.077;exitDx=0;exitDy=0;entryX=-0.014;entryY=0.103;entryDx=0;entryDy=0;exitPerimeter=0;entryPerimeter=0;edgeStyle=orthogonalEdgeStyle;" parent="1" source="ZzBOKmDnwNmZreqsW6G7-30" target="ZzBOKmDnwNmZreqsW6G7-14" edge="1">
          <mxGeometry width="160" relative="1" as="geometry">
            <mxPoint x="790" y="143" as="sourcePoint" />
            <mxPoint x="870" y="61" as="targetPoint" />
            <Array as="points">
              <mxPoint x="70" y="184" />
              <mxPoint x="70" y="279" />
            </Array>
          </mxGeometry>
        </mxCell>
        <mxCell id="hEGUzDSN-SBdjR0W7Lih-6" value="Charm" style="swimlane;fontStyle=0;childLayout=stackLayout;horizontal=1;startSize=26;fillColor=none;horizontalStack=0;resizeParent=1;resizeParentMax=0;resizeLast=0;collapsible=1;marginBottom=0;whiteSpace=wrap;html=1;" vertex="1" parent="1">
          <mxGeometry x="670" y="390" width="140" height="78" as="geometry" />
        </mxCell>
        <mxCell id="hEGUzDSN-SBdjR0W7Lih-7" value="Plus : string" style="text;strokeColor=none;fillColor=none;align=left;verticalAlign=top;spacingLeft=4;spacingRight=4;overflow=hidden;rotatable=0;points=[[0,0.5],[1,0.5]];portConstraint=eastwest;whiteSpace=wrap;html=1;" vertex="1" parent="hEGUzDSN-SBdjR0W7Lih-6">
          <mxGeometry y="26" width="140" height="26" as="geometry" />
        </mxCell>
        <mxCell id="hEGUzDSN-SBdjR0W7Lih-8" value="Down : string" style="text;strokeColor=none;fillColor=none;align=left;verticalAlign=top;spacingLeft=4;spacingRight=4;overflow=hidden;rotatable=0;points=[[0,0.5],[1,0.5]];portConstraint=eastwest;whiteSpace=wrap;html=1;" vertex="1" parent="hEGUzDSN-SBdjR0W7Lih-6">
          <mxGeometry y="52" width="140" height="26" as="geometry" />
        </mxCell>
        <mxCell id="hEGUzDSN-SBdjR0W7Lih-10" value="Use" style="endArrow=open;endSize=12;dashed=1;html=1;rounded=0;exitX=0.985;exitY=-0.026;exitDx=0;exitDy=0;exitPerimeter=0;entryX=-0.026;entryY=-0.051;entryDx=0;entryDy=0;entryPerimeter=0;edgeStyle=orthogonalEdgeStyle;" edge="1" parent="1" source="ZzBOKmDnwNmZreqsW6G7-28" target="hEGUzDSN-SBdjR0W7Lih-7">
          <mxGeometry width="160" relative="1" as="geometry">
            <mxPoint x="680" y="340" as="sourcePoint" />
            <mxPoint x="840" y="340" as="targetPoint" />
            <Array as="points">
              <mxPoint x="538" y="346" />
              <mxPoint x="560" y="346" />
              <mxPoint x="560" y="415" />
            </Array>
          </mxGeometry>
        </mxCell>
        <mxCell id="hEGUzDSN-SBdjR0W7Lih-11" value="Use" style="endArrow=open;endSize=12;dashed=1;html=1;rounded=0;exitX=1;exitY=0.5;exitDx=0;exitDy=0;entryX=0;entryY=0.5;entryDx=0;entryDy=0;edgeStyle=orthogonalEdgeStyle;" edge="1" parent="1" source="hEGUzDSN-SBdjR0W7Lih-1" target="hEGUzDSN-SBdjR0W7Lih-8">
          <mxGeometry width="160" relative="1" as="geometry">
            <mxPoint x="548" y="365" as="sourcePoint" />
            <mxPoint x="676" y="425" as="targetPoint" />
            <Array as="points">
              <mxPoint x="630" y="525" />
              <mxPoint x="630" y="455" />
            </Array>
          </mxGeometry>
        </mxCell>
      </root>
    </mxGraphModel>
  </diagram>
</mxfile>
